<svg width="235" height="231" viewBox="0 0 235 231" fill="none" xmlns="http://www.w3.org/2000/svg">
<path d="M0 83.5649C0 54.3145 0 39.6892 5.80637 28.517C10.9138 18.6897 19.0635 10.6998 29.0874 5.69252C40.483 0 55.4008 0 85.2362 0H149.761C179.596 0 194.514 0 205.91 5.69252C215.934 10.6998 224.083 18.6897 229.191 28.517C234.997 39.6892 234.997 54.3145 234.997 83.5649V146.825C234.997 176.075 234.997 190.7 229.191 201.872C224.083 211.7 215.934 219.69 205.91 224.697C194.514 230.389 179.596 230.389 149.761 230.389H85.2362C55.4008 230.389 40.483 230.389 29.0874 224.697C19.0635 219.69 10.9138 211.7 5.80637 201.872C0 190.7 0 176.075 0 146.825V83.5649Z" fill="#BF512B"/>
<path fill-rule="evenodd" clip-rule="evenodd" d="M59.8987 100.792C59.8211 81.0487 74.8141 64.9739 93.3947 64.891L169.992 64.509L170.076 83.64L93.4788 84.022C89.3385 84.0324 85.3715 85.7976 82.4503 88.9294C79.5291 92.0613 77.8929 96.3034 77.9015 100.723C77.9533 114.195 92.2671 122.015 102.607 114.22L121.494 99.9817C143.917 83.0715 174.979 100.035 175.093 129.262C175.17 149.182 160.044 165.392 141.297 165.494L63.6976 165.88L63.6136 146.749L141.213 146.363C143.303 146.357 145.372 145.913 147.301 145.054C149.23 144.195 150.982 142.939 152.456 141.358C153.93 139.776 155.098 137.901 155.893 135.837C156.689 133.774 157.095 131.564 157.09 129.333C157.036 115.603 142.449 107.634 131.91 115.578L113.023 129.816C90.7902 146.575 60.0109 129.761 59.8987 100.792Z" fill="black"/>
</svg>
