<svg width="260" height="87" viewBox="0 0 260 87" fill="none" xmlns="http://www.w3.org/2000/svg">
<path d="M260 0H0V87H260V0Z" fill="white"/>
<path d="M159.238 25.3169C167.519 25.3169 174.268 33.0327 174.268 42.3515C174.268 51.6703 167.519 59.1856 159.238 59.1856C154.842 59.1856 151.518 57.0745 149.422 53.7278V57.6912H143.644V15.3014H149.421V30.971C151.521 27.577 154.842 25.3169 159.238 25.3169ZM159.238 53.5218C164.351 53.5218 168.49 48.5283 168.49 42.3515C168.49 36.1747 164.349 31.0545 159.238 31.0545C154.126 31.0545 149.422 36.1733 149.422 42.3515C149.422 48.5297 154.126 53.5232 159.238 53.5232V53.5218Z" fill="black"/>
<path d="M125.059 59.187C131.351 59.1571 136.07 56.1863 138.602 51.8464L133.98 48.8596C132.125 51.8158 128.957 53.6512 125.032 53.6686C119.301 53.6951 115.797 50.0749 115.023 44.37L139.876 44.2524L139.987 41.2406C140.26 32.709 134.494 25.2717 124.775 25.3169C115.806 25.3594 108.797 32.0415 108.844 42.1399C108.891 52.1763 115.465 59.2329 125.059 59.187ZM115.123 39.0981C116.096 34.138 119.444 30.6717 124.801 30.6466C130.033 30.6215 133.788 34.3677 133.934 39.0083L115.123 39.0967V39.0981Z" fill="black"/>
<path d="M107.259 27.009V32.8204L83.2433 51.8812H106.222V57.6898H75.2437V52.8104H75.2526L75.2437 52.7993V51.5854L98.5791 32.8204H76.2781V27.009H107.259Z" fill="black"/>
<path d="M71.0232 27.0104H65.2472V57.6912H71.0232V27.0104Z" fill="black"/>
<path d="M68.0091 24.4775C70.0935 24.4775 71.7832 22.7753 71.7832 20.6756C71.7832 18.5759 70.0935 16.8738 68.0091 16.8738C65.9246 16.8738 64.2349 18.5759 64.2349 20.6756C64.2349 22.7753 65.9246 24.4775 68.0091 24.4775Z" fill="black"/>
<path d="M190.996 25.3121C185.2 25.3121 180.207 27.7761 177.969 31.594L182.903 34.6845C183.923 32.8893 186.842 31.129 190.996 31.129C195.546 31.129 199.226 34.784 199.226 39.2102V40.8571C197.54 38.2816 194.677 36.6348 190.331 36.6348C182.714 36.6348 176.528 41.6798 176.528 47.9109C176.528 54.142 182.714 59.187 190.331 59.187C194.677 59.187 197.54 56.3025 199.226 53.7292V57.6926H205.004V39.2116C205.004 31.5411 198.716 25.3121 190.996 25.3121ZM190.381 54.4991C185.78 54.4991 182.206 51.513 182.206 47.9102C182.206 44.3074 185.831 41.3728 190.381 41.3728C194.931 41.3728 198.419 44.2552 198.419 47.9102C198.419 51.5652 194.932 54.4977 190.381 54.4977V54.4991Z" fill="black"/>
<path fill-rule="evenodd" clip-rule="evenodd" d="M24.4137 37.9907C24.3895 32.0186 29.1946 27.1566 35.1489 27.1288L59.6978 27.0132L59.7254 32.7995L35.1759 32.9151C33.8491 32.9188 32.5781 33.4529 31.6422 34.4C30.7062 35.3472 30.1817 36.6299 30.1841 37.9664C30.2007 42.0411 34.7889 44.4063 38.1029 42.0487L44.1553 37.7422C51.3416 32.6276 61.2967 37.7582 61.3333 46.5981C61.3582 52.6232 56.5102 57.5262 50.5027 57.5569L25.6319 57.6738L25.6049 51.8875L50.4758 51.7705C51.1456 51.7689 51.8086 51.6344 52.4268 51.3746C53.045 51.1149 53.6063 50.735 54.0788 50.2567C54.5512 49.7784 54.9255 49.211 55.1803 48.587C55.435 47.9629 55.5653 47.2945 55.5636 46.6197C55.547 42.4671 50.871 40.0566 47.4935 42.4594L41.4404 46.7715C34.3149 51.8381 24.4489 46.752 24.4137 37.9907Z" fill="black"/>
<path fill-rule="evenodd" clip-rule="evenodd" d="M174.147 42.4775C174.147 33.1426 167.476 25.4139 159.293 25.4139C154.949 25.4139 151.666 27.6921 149.59 31.078V15.3842H143.882V57.841H149.593V53.8713C151.663 57.223 154.949 59.3389 159.293 59.3389C167.476 59.3389 174.147 51.8123 174.147 42.4775ZM168.436 42.4775C168.436 48.6628 164.346 53.6662 159.293 53.6662C154.241 53.6662 149.593 48.6656 149.593 42.4775C149.593 36.2893 154.241 31.1606 159.293 31.1606C164.346 31.1606 168.436 36.2893 168.436 42.4775ZM211.736 27.0997C211.736 27.0997 217.756 45.2512 218.973 48.6912C220.052 51.7468 222.296 52.1826 223.716 52.4559C223.894 52.4901 224.059 52.5214 224.207 52.5556L232.409 27.0997H238.472C238.472 27.0997 227.538 61.3551 226.475 64.5901C224.421 70.7697 219.023 71.8034 214.286 71.8034H208.209V65.9371H213.806C215.552 65.9371 220.027 65.7406 221.171 62.235C221.729 60.5463 222.452 58.3337 222.452 58.3337C218.95 57.7641 215.558 55.9416 214.107 52.2594C212.154 47.3357 205.737 27.1083 205.737 27.1083L211.736 27.0997ZM138.341 51.9747C135.83 56.3232 131.176 59.299 124.949 59.3275C115.464 59.3731 108.971 52.305 108.924 42.2411C108.879 32.126 115.804 25.4395 124.67 25.3911C134.273 25.3455 139.973 32.7952 139.703 41.3384L139.594 44.3541L115.042 44.4737C115.807 50.1863 119.272 53.8143 124.933 53.7858C128.813 53.7687 131.944 51.932 133.777 48.9703L138.341 51.9747ZM115.14 39.2054C116.103 34.239 119.409 30.7676 124.704 30.742C129.874 30.7163 133.584 34.4697 133.729 39.1172L115.14 39.2054ZM107.088 27.0969V32.9176L83.3543 51.9975H106.343V57.8154H75.4477V52.9514V51.7269L98.5093 32.9319H76.1899V27.1083L107.088 27.0969ZM71.4665 20.7721C71.4658 21.7816 71.0725 22.7496 70.3731 23.4635C69.6738 24.1774 68.7254 24.5787 67.7363 24.5795C66.7473 24.5787 65.7989 24.1774 65.0995 23.4635C64.4001 22.7496 64.0069 21.7816 64.0062 20.7721C64.0062 19.7623 64.3992 18.7938 65.0987 18.0798C65.7982 17.3658 66.747 16.9646 67.7363 16.9646C68.2262 16.9646 68.7113 17.0631 69.1639 17.2545C69.6164 17.4458 70.0276 17.7263 70.374 18.0798C70.7203 18.4334 70.9951 18.8531 71.1826 19.315C71.3701 19.777 71.4665 20.2721 71.4665 20.7721ZM65.0078 27.1168H70.716V57.841H65.0078V27.1168ZM190.959 25.4082C185.231 25.4082 180.296 27.8743 178.084 31.6988L182.96 34.7943C183.967 32.9974 186.866 31.2346 190.959 31.2346C195.454 31.2346 199.092 34.894 199.092 39.3279V40.991C197.418 38.4109 194.597 36.7621 190.301 36.7621C182.768 36.7621 176.661 41.8168 176.661 48.0562C176.661 54.2956 182.773 59.3503 190.301 59.3503C194.597 59.3503 197.426 56.4627 199.092 53.8855V57.8552H204.803V39.345C204.803 31.6475 198.587 25.411 190.959 25.411V25.4082ZM190.351 54.6401C185.803 54.6401 182.26 51.65 182.26 48.042C182.26 44.4339 185.842 41.4922 190.351 41.4922C194.859 41.4922 198.294 44.3769 198.294 48.042C198.294 51.707 194.848 54.6401 190.351 54.6401ZM34.9826 27.2279C32.1637 27.2362 29.4633 28.3868 27.4753 30.4267C25.4872 32.4666 24.3742 35.2289 24.3809 38.1062C24.4144 46.8801 34.1652 51.9747 41.207 46.9L47.1885 42.5829C50.5365 40.1765 55.1482 42.5828 55.1649 46.7491C55.1664 47.425 55.0375 48.0946 54.7855 48.7197C54.5336 49.3443 54.164 49.9123 53.6975 50.3913C53.2309 50.8773 52.6741 51.2635 52.0597 51.5276C51.4492 51.7889 50.7939 51.9244 50.1319 51.9263L25.5527 52.043L25.5778 57.8381L50.1571 57.7214C53.0026 57.7139 55.7288 56.5532 57.7362 54.4946C59.7436 52.436 60.8678 49.6479 60.8619 46.7434C60.8256 37.8898 50.9857 32.7525 43.8853 37.8755L37.9036 42.187C34.6282 44.5478 30.0918 42.187 30.0779 38.0977C30.0755 36.7597 30.5933 35.4754 31.5175 34.5266C32.4428 33.5781 33.6992 33.0434 35.0105 33.0401L59.2829 32.9233L59.255 27.1282L34.9826 27.2279Z" fill="black"/>
</svg>
